<?xml version="1.0" encoding="UTF-8" standalone="no"?>
<svg width="63px" height="63px" viewBox="0 0 63 63" version="1.1" xmlns="http://www.w3.org/2000/svg" xmlns:xlink="http://www.w3.org/1999/xlink">
    <!-- Generator: Sketch 39 (31667) - http://www.bohemiancoding.com/sketch -->
    <title>ic_play_circle_outline_white_24px</title>
    <desc>Created with Sketch.</desc>
    <defs></defs>
    <g id="Page-1" stroke="none" stroke-width="1" fill="none" fill-rule="evenodd">
        <g id="Desktop-HD-Copy" transform="translate(-169.000000, -4169.000000)">
            <g id="Group-6" transform="translate(0.000000, 3137.000000)">
                <g id="Group-3" transform="translate(50.000000, 979.000000)">
                    <g id="ic_play_circle_outline_white_24px" transform="translate(113.000000, 47.000000)">
                        <g id="Group">
                            <polygon id="Shape" points="0 0 75 0 75 75 0 75"></polygon>
                            <path d="M31.25,51.5625 L50,37.5 L31.25,23.4375 L31.25,51.5625 L31.25,51.5625 Z M37.5,6.25 C20.25,6.25 6.25,20.25 6.25,37.5 C6.25,54.75 20.25,68.75 37.5,68.75 C54.75,68.75 68.75,54.75 68.75,37.5 C68.75,20.25 54.75,6.25 37.5,6.25 L37.5,6.25 Z M37.5,65 C22.340625,65 10,52.659375 10,37.5 C10,22.340625 22.340625,10 37.5,10 C52.659375,10 65,22.340625 65,37.5 C65,52.659375 52.659375,65 37.5,65 L37.5,65 Z" id="Shape" fill="#FFFFFF"></path>
                        </g>
                    </g>
                </g>
            </g>
        </g>
    </g>
</svg>