<?xml version="1.0" encoding="UTF-8" standalone="no"?>
<svg width="42px" height="42px" viewBox="0 0 42 42" version="1.1" xmlns="http://www.w3.org/2000/svg" xmlns:xlink="http://www.w3.org/1999/xlink">
    <!-- Generator: Sketch 39.1 (31720) - http://www.bohemiancoding.com/sketch -->
    <title>ic_play_circle_outline_white_24px</title>
    <desc>Created with Sketch.</desc>
    <defs></defs>
    <g id="Page-1" stroke="none" stroke-width="1" fill="none" fill-rule="evenodd">
        <g id="Desktop-HD-Copy" transform="translate(-1323.000000, -5576.000000)">
            <g id="Group-7" transform="translate(398.000000, 5572.000000)">
                <g id="ic_play_circle_outline_white_24px" transform="translate(921.000000, 0.000000)">
                    <g id="Group">
                        <polygon id="Shape" points="0 0 50 0 50 50 0 50"></polygon>
                        <path d="M20.8333333,34.375 L33.3333333,25 L20.8333333,15.625 L20.8333333,34.375 L20.8333333,34.375 Z M25,4.16666667 C13.5,4.16666667 4.16666667,13.5 4.16666667,25 C4.16666667,36.5 13.5,45.8333333 25,45.8333333 C36.5,45.8333333 45.8333333,36.5 45.8333333,25 C45.8333333,13.5 36.5,4.16666667 25,4.16666667 L25,4.16666667 Z M25,43.3333333 C14.89375,43.3333333 6.66666667,35.10625 6.66666667,25 C6.66666667,14.89375 14.89375,6.66666667 25,6.66666667 C35.10625,6.66666667 43.3333333,14.89375 43.3333333,25 C43.3333333,35.10625 35.10625,43.3333333 25,43.3333333 L25,43.3333333 Z" id="Shape" fill="#000000"></path>
                    </g>
                </g>
            </g>
        </g>
    </g>
</svg>