<?xml version="1.0" standalone="no"?>
<!DOCTYPE svg PUBLIC "-//W3C//DTD SVG 20010904//EN"
 "http://www.w3.org/TR/2001/REC-SVG-20010904/DTD/svg10.dtd">
<svg version="1.0" xmlns="http://www.w3.org/2000/svg"
 width="300.000000pt" height="300.000000pt" viewBox="0 0 300.000000 300.000000"
 preserveAspectRatio="xMidYMid meet">
<metadata>
Created by potrace 1.11, written by Peter Selinger 2001-2013
</metadata>
<g transform="translate(0.000000,300.000000) scale(0.100000,-0.100000)"
fill="#000000" stroke="none">
<path d="M1116 2565 l54 -135 -355 -917 c-196 -505 -367 -941 -380 -969 -27
-55 -72 -87 -141 -102 l-39 -8 -3 -67 -3 -67 361 0 360 0 0 64 c0 73 7 68
-112 81 -119 13 -185 75 -174 163 3 24 40 135 83 248 l76 204 445 -2 444 -3
64 -160 c115 -285 124 -338 67 -397 -29 -31 -105 -58 -162 -58 -76 0 -81 -5
-81 -76 l0 -64 565 0 565 0 0 65 0 64 -42 11 c-88 21 -129 50 -157 110 -14 30
-215 526 -446 1103 l-419 1047 -312 0 -312 0 54 -135z m353 -849 c105 -263
191 -480 191 -482 0 -2 -169 -4 -376 -4 -237 0 -374 4 -372 10 17 51 363 958
365 956 1 -1 87 -217 192 -480z"/>
</g>
</svg>
