<svg version="1" xmlns="http://www.w3.org/2000/svg" width="400" height="400" viewBox="0 0 300.000000 300.000000"><path d="M111.6 43.5L117 57l-35.5 91.7c-19.6 50.5-36.7 94.1-38 96.9-2.7 5.5-7.2 8.7-14.1 10.2l-3.9.8-.3 6.7-.3 6.7H97v-6.4c0-7.3.7-6.8-11.2-8.1-11.9-1.3-18.5-7.5-17.4-16.3.3-2.4 4-13.5 8.3-24.8l7.6-20.4 44.5.2 44.4.3 6.4 16c11.5 28.5 12.4 33.8 6.7 39.7-2.9 3.1-10.5 5.8-16.2 5.8-7.6 0-8.1.5-8.1 7.6v6.4h113v-12.9l-4.2-1.1c-8.8-2.1-12.9-5-15.7-11-1.4-3-21.5-52.6-44.6-110.3L168.6 30h-62.4l5.4 13.5zm35.3 84.9c10.5 26.3 19.1 48 19.1 48.2 0 .2-16.9.4-37.6.4-23.7 0-37.4-.4-37.2-1 1.7-5.1 36.3-95.8 36.5-95.6.1.1 8.7 21.7 19.2 48z"/></svg>