<?xml version="1.0" encoding="utf-8"?><!DOCTYPE svg PUBLIC "-//W3C//DTD SVG 1.1//EN" "http://www.w3.org/Graphics/SVG/1.1/DTD/svg11.dtd"><svg width="169" height="63" viewBox="0 0 169 63" xmlns="http://www.w3.org/2000/svg" xmlns:xlink="http://www.w3.org/1999/xlink"><svg width="32" height="32" viewBox="0 0 32 32" id="facebook"><path d="M26.667 0H5.333A5.334 5.334 0 0 0 0 5.334v21.332A5.333 5.333 0 0 0 5.333 32H16V18h-4v-4h4v-3a5 5 0 0 1 5-5h5v4h-5a1 1 0 0 0-1 1v3h5.5l-1 4H20v14h6.667A5.334 5.334 0 0 0 32 26.666V5.334A5.333 5.333 0 0 0 26.667 0z" fill="#444"/></svg><svg width="63" height="63" viewBox="0 0 63 63" id="play" x="32"><title>ic_play_circle_outline_white_24px</title><g transform="translate(-6 -6)" fill="none" fill-rule="evenodd"><path d="M0 0h75v75H0z"/><path d="M31.25 51.563L50 37.5 31.25 23.437v28.125zM37.5 6.25c-17.25 0-31.25 14-31.25 31.25s14 31.25 31.25 31.25 31.25-14 31.25-31.25-14-31.25-31.25-31.25zm0 58.75C22.34 65 10 52.66 10 37.5S22.34 10 37.5 10 65 22.34 65 37.5 52.66 65 37.5 65z" fill="#FFF"/></g></svg><svg width="42" height="42" viewBox="0 0 42 42" id="play-black" x="95"><title>ic_play_circle_outline_white_24px</title><g transform="translate(-4 -4)" fill="none" fill-rule="evenodd"><path d="M0 0h50v50H0z"/><path d="M20.833 34.375L33.333 25l-12.5-9.375v18.75zM25 4.167C13.5 4.167 4.167 13.5 4.167 25 4.167 36.5 13.5 45.833 25 45.833c11.5 0 20.833-9.333 20.833-20.833C45.833 13.5 36.5 4.167 25 4.167zm0 39.166C14.894 43.333 6.667 35.106 6.667 25 6.667 14.894 14.894 6.667 25 6.667c10.106 0 18.333 8.227 18.333 18.333 0 10.106-8.227 18.333-18.333 18.333z" fill="#000"/></g></svg><svg width="32" height="32" viewBox="0 0 32 32" id="twitter" x="137"><path d="M32 6.076a13.14 13.14 0 0 1-3.771 1.034 6.592 6.592 0 0 0 2.887-3.632 13.151 13.151 0 0 1-4.169 1.593 6.557 6.557 0 0 0-4.792-2.073 6.565 6.565 0 0 0-6.565 6.565c0 .515.058 1.016.17 1.496a18.64 18.64 0 0 1-13.532-6.86A6.536 6.536 0 0 0 1.339 7.5a6.563 6.563 0 0 0 2.921 5.465 6.54 6.54 0 0 1-2.974-.821l-.001.083a6.568 6.568 0 0 0 5.266 6.437 6.578 6.578 0 0 1-2.965.112 6.571 6.571 0 0 0 6.133 4.559 13.172 13.172 0 0 1-8.154 2.81c-.53 0-1.052-.031-1.566-.092a18.579 18.579 0 0 0 10.064 2.95c12.076 0 18.679-10.004 18.679-18.68 0-.285-.006-.568-.019-.849a13.347 13.347 0 0 0 3.276-3.398z" fill="#444"/></svg></svg>